<svg width="800" height="800" viewBox="0 0 800 800" xmlns="http://www.w3.org/2000/svg"><title>pattern-dark copy</title><g fill="#2E3333" fill-rule="evenodd" opacity=".1"><path d="M267.578 281.303l-79.056-4.89 5.312-11.05-10.426-13.97-17.866 1.913-8.33 9.78 5.5 12.008-62.334-2.723-3.574 102.427 48.618 25.695.464-93.904 127.153-15.15-.85-4.37-4.612-5.765zm-112.505 66.145l120.585-18.223-2.62-29.12-117.52 16.89-.445 30.453zm2.788 54.304l117.798-34.735v-25.394L155.073 360.09l2.788 41.662zM372.454 123.736l-20.298-1.39-81.404-5.907.05.342-5.037-.343v14.087l7.077.626 14.708 103.495 64.614-3.23 13.053-92.084 7.237.64v-16.238zm-55.748-17.1l18.492 2.504 6.313-41.34-19.058-26.388-13.006 9.695 11.718 22.13-4.458 33.4zM220.602-75.898l-14.35 8.824.526-17.92L189.003-90l-8.387 12.558 5.797 14.466-12.757 19.79 9.272 11.568 14.485.58L209.59-50.83l17.09 2.077 6.02-17.03L220.603-75.9zm-44.504 55.94l21.615 2.192-2.31 42.457L181 60.798 126.73 83.93 92.54 68.882 74 23.753l29.552-35.89 35.606-.523 24.515-21.894 12.425 14.596zM220.602 724.102l-14.35 8.824.526-17.92L189.003 710l-8.387 12.558 5.797 14.466-12.757 19.79 9.272 11.568 14.485.58 12.177-19.793 17.09 2.077 6.02-17.03-12.098-10.115zm-44.504 55.94l21.615 2.192-2.31 42.457L181 860.798l-54.27 23.132-34.188-15.047L74 823.753l29.552-35.89 35.606-.523 24.515-21.894 12.425 14.596zM689.83 251.337l-20.91-7.007 16.753-65.938 59-45.875h62.908l2.682 17.354-65.588 10.305-37.38 37.566-17.463 53.597zm102.464 12.858c-2.782 4.814-10.068 5.45-17.234 1.948-4.834-2.365-4.81-8.38-4.282-12.045.287-2.003 1.087-3.885 2.344-5.472 1.727-2.186 4.61-5.03 7.935-5.118 5.41-.142 10.067 2.282 12.698 6.666 2.637 4.377 1.318 9.198-1.46 14.02zm-16.872-80.797c1.38-5.293 7.864-6.082 11.11-6.14 1.23-.02 2.44.227 3.565.733 2.293 1.038 6.18 3.258 6.967 6.637 1.13 4.864.04 8.948-3.45 12.137-3.49 3.19-8.1 2.893-12.984 1.27-4.887-1.618-7.056-7.512-5.208-14.636zm-33.268 47.593c-3.474 2.927-7.233 3.732-11.26 2.235-4.025-1.5-5.694-5.345-6.396-9.957-.71-4.615 3.17-8.802 9.707-10.256 4.858-1.076 8.178 3.835 9.566 6.43.528.987.828 2.067.88 3.182.11 2.28-.08 6.334-2.496 8.367zm8.148-61.625l-34.6 35.244-15.866 49.243 132.824 44.502-21.49-139.07-60.868 10.08zM-108.684 251.337l-20.91-7.007 16.752-65.938 59-45.875H9.067l2.68 17.354-65.587 10.305-37.38 37.566-17.464 53.597zM-6.22 264.195c-2.783 4.814-10.068 5.45-17.235 1.948-4.834-2.365-4.81-8.38-4.28-12.045.285-2.003 1.086-3.885 2.342-5.472 1.727-2.186 4.61-5.03 7.935-5.118 5.41-.142 10.067 2.282 12.698 6.666 2.637 4.377 1.318 9.198-1.46 14.02zm-16.873-80.797c1.38-5.293 7.864-6.082 11.11-6.14 1.23-.02 2.44.227 3.565.733 2.293 1.038 6.18 3.258 6.967 6.637 1.13 4.864.038 8.948-3.45 12.137-3.49 3.19-8.102 2.893-12.985 1.27-4.886-1.618-7.056-7.512-5.208-14.636zM-56.36 230.99c-3.475 2.927-7.234 3.732-11.26 2.235-4.026-1.5-5.695-5.345-6.397-9.957-.71-4.615 3.17-8.802 9.708-10.256 4.858-1.076 8.178 3.835 9.566 6.43.527.987.828 2.067.88 3.182.108 2.28-.082 6.334-2.497 8.367zm8.147-61.625l-34.6 35.244-15.866 49.243 132.825 44.502-21.49-139.07-60.868 10.08zM648.89-25.154L616.62-34.82l-1.265 31.585-5.515 1.603-8.19-37.67-19.382-5.805-7.858 29.75-5.248 1.222-1.4-35.317-21.805-6.533-13.13 29.558-3.825.698 1.044-32.618L497.162-60 476.54-46.626l-1.498 21.244 8.48 12.165L625.66 30.99l33.883-11.143 6.35-22.436-17.004-22.564zm10.553 53.122L615.59 45.775l-20.562-16.3-23.812 3.195-19.168-19.764-27.004 1.204-20.17-16.006-31.614-2.956L472 7.773l28.79 4.737 17.54 14.596 29.424 2.19 20.425 16.71 22.223-.65 22.432 14.812L663.98 39.32l-4.537-11.352zm-184.03-12.28l.783 13.79 4.812 8.944L603.6 84.23l22.63 3.023 21.482-6.432 10.312-13.537 1.527-15.037-34.253 13.848L610 67.71 475.413 15.687zM648.89 774.846l-32.268-9.665-1.265 31.585-5.515 1.603-8.19-37.67-19.382-5.805-7.858 29.75-5.248 1.222-1.4-35.317-21.805-6.533-13.13 29.558-3.825.698 1.044-32.618L497.162 740l-20.624 13.374-1.498 21.244 8.48 12.165L625.66 830.99l33.883-11.143 6.35-22.436-17.004-22.564zm10.553 53.122l-43.853 17.807-20.562-16.3-23.812 3.195-19.168-19.764-27.004 1.204-20.17-16.006-31.614-2.956-1.26 12.625 28.79 4.737 17.54 14.596 29.424 2.19 20.425 16.71 22.223-.65 22.432 14.812 51.145-20.848-4.537-11.352zm-184.03-12.28l.783 13.79 4.812 8.944L603.6 884.23l22.63 3.023 21.482-6.432 10.312-13.537 1.527-15.037-34.253 13.848L610 867.71l-134.586-52.022zM364.7 478.578l60.696-13.154 12.602-9.56-7.644-21.154-18.76-.694 13.895-11.79-2.432-18.034-20.84-.753-1.817-11.734-32.283-6.935v-13.526l-15.197 8.323-5.167 13.386 7.556 14.77h-9.382l-17.286 7.68v15.607l16.22 9.596-21.85 7.144.76 23.434 8.943 9.48-6.458.584 8.383 74.82h14.9V494.36l10.257-1.89-2.582 63.597h16.81l5.036-62.785 8.607-.426-3.088 63.21h16.59l5.04-62.784 8.602-.426-3.088 63.21h15.193l13.66-82.3-75.878 4.812M761.464 485.102l9.153-45.332-.346-21.752-16.442-2.828.724-9.915 26.097 2.417 26.69 2.06-3.826 12.318-21.765-3.105-.62 16.437-13.198 51.445-6.468-1.745zm84.647-69.38l-13.35-27.68-86.373-2.182-19.977 24.738 11.512 47.91-1.88 62.55 27.282 14.88 44.254-34.458 40.618-58.59-2.085-27.17zm-22.753 104.85l-42.057 23.12-4.308-8.708 41.472-28.56 38.416-58.86-.768-24.353-7.563-23.308 6.794-4.29 15.12 31.262.416 29.182-47.523 64.516zM-37.05 485.102l9.152-45.332-.346-21.752-16.443-2.828.725-9.915 26.097 2.417 26.69 2.06-3.826 12.318-21.766-3.105-.62 16.437-13.196 51.445-6.47-1.745zm84.647-69.38l-13.35-27.68-86.375-2.182-19.977 24.738 11.512 47.91-1.88 62.55 27.283 14.88L9.063 501.48l40.618-58.59-2.083-27.17zM24.842 520.57l-42.057 23.12-4.308-8.708 41.472-28.56 38.415-58.86-.768-24.353-7.562-23.308 6.794-4.29 15.118 31.262.417 29.182-47.523 64.516zM538.99 162.236l-96.064 65 2.508 4.22 98.597-60.748-5.04-8.472zm33.023 37.552l-113.927 34.456.873 5.003 115.052-28.995-2-10.464zM567.4 270.99l-148.38-.96 15.25 60.76 24.115 9.932-1.716 13.702 66.164 2 .448-14.778L554.046 327l13.354-56.01zm-38.997-32.304l-12.914 13.022 23.415 12.548s9.405-20.304 7.71-19.643c-1.696.663-18.212-5.927-18.212-5.927zm-24.498-2.75l-24.724 7.246 3.848 18.004s21.17 2.397 21.46 1.132c.293-1.265-.583-26.382-.583-26.382zm-54.237 4.925l-10.442 17.81 17.013 3.41 5.353-6.86-11.925-14.36zM662.057 512.08h-6.325l3.162-9.873h5.93l-2.767 9.874zm-10.29 16.88l-13.982 1.822-2.463-5.722 16.705-2.47-.26 6.37zm-17.902 25.21l-6.956-5.21 3.555-4.737 7.906 3.947-4.505 6zM612.83 487.07l-6.956-5.208 3.558-4.735 7.907 3.944-4.51 5.998zm-21.06 55.07l-25.548-9.037 1.42-15.048 28.59-23.202 20.22 9.746.887 20.142-25.57 17.4zm14.772 21.034l-2.325-9.365 5.445-3.208 1.986 9.568-5.106 3.006zm-22.727 10.617h-7.42v-7.55l7.42-1.58v9.13zm-19.75-13.924l-6.958-5.21 4.592-6.112 6.87 5.325-4.504 5.996zm-12.4-46.412l-3.224-3.994 5.234-4.206 3.223 3.994-5.233 4.206zm-.835 21.28l-4.94-1.403 1.837-6.453 4.94 1.402-1.837 6.453zM530.45 557.7l-1.374-5.755 9.652.54 1.47 6.142-9.747-.926zm-.628-39.618l9.143 9.09-5.19 5.824-8.876-10.856 4.922-4.058zm13.918-32.637l4.08 4.903-9.085 9.153-5.74-1.05 10.745-13.005zm20.912-1.244l14.697 4.573-1.638 6.14-16.097-5.103 3.037-5.61zm26.7-14.985l3.923 4.438-8.777 4.046-4.184-4.735 9.04-3.75zm36.976 10.775h4.946v-4.937h-4.946v4.937zm12.172 11.185l4.966 3.234-7.374 6.237-5.3-3.45 7.708-6.022zm28.588-27.072l-91.082-12.565-54.856 33.41-22.778 56.148 39.05 51.275 66.94-3.015 72.895-45.053 2.84-41.476-13.01-38.723zM187.698 524.66l-18.69 12.29-7.855 21.795-17.32 5.87-3.214 18.707-27.054 8.074-4.1 15.276-11.574-9.225 7.248-21.358 25.328-6.39 2.205-16.507 19.866-9.64 6.162-18.218 18.887-9.976-18.26-7.032-34.732 26.337L86.81 578.86l-3.814 30.86-13.29 10.624-4.313 15.704 12.565 12.165 19.67-2.533 26.588-31.008 43.894-33.907 30.915-38.734 16.286-15.748 12.725-22.86-13.36-12.572-17.297 4.09-9.68 29.72zm53.44 27.53l-8.016 35.052-35.482 34.8-39.327 37.333-22.392 5.588-20.864-8.128-1.017-15.24 18.828-19.81 50.382-41.15 21.246-26.158 11.832-14.86 13.74-3.81 11.07 16.382zM426.57 677.2c-2.64 3.922-6.922 4.6-9.21 2.676-2.293-1.92-4.537-7.71 1.68-10.855 4.58-2.32 10.17 4.263 7.53 8.18zm8.068-42.836c4.873-2.467 10.82 4.537 8.01 8.705-2.807 4.17-7.363 4.888-9.8 2.843-2.436-2.043-4.825-8.2 1.79-11.55zm26.196 21.195c4.035-2.044 7.18 4.062 4.858 7.51-2.324 3.45-4.32 3.736-6.336 2.045-2.016-1.693-3.993-6.787 1.478-9.556zm-57.1-2.77c-2.718 4.038-5.055 4.375-7.414 2.395-2.36-1.98-4.673-7.944 1.73-11.185 4.722-2.39 8.404 4.755 5.685 8.79zm-18.338 42.678c-2.732.933-8.32-.52-7.14-8.126.87-5.603 8.943-6.1 10.37-1.306 1.423 4.794-.496 8.5-3.23 9.432zm107.086-28.123l-15.08-41.222-60.784-17.9-8.533 6.958-28.513-10.082-49.587 26.52-18.95 41.15-3.282 55.162c6.645 7.965 26.305 11.297 26.305 11.297l-15.86-28.537 18.817-11.68-11.893-25.444 17.536-8.855-.818-24.68 27.55-4.303 5.15-21.015 27.527 5.376-47.083 38.393-12.356 77.533 149.854-68.668zM776.054 680.504l14.49-18.714.8-21.468 13.342-14.217s4.89-14.887 4.946-15.024l-12.934-5.008-4.124 12.87-13.53 15.84-1.012 20.304-11.928 17.122 9.95 8.296zm37.706-31.832l-11.118-6.07-11.946 26.556-12.24 16.764-18.775-.88 9.736-27.8 2.025-27.5-13.923-1.702-1.815 27.258-9.64 29.104-1.494-.07 2.475-31.525 6.632-29.47-14.06-.195-5.835 28.073-.74 21.165-5.12-10.817 3.867-20.415-14.138-2.93-3.933 23.326 8.094 15.09s-.07 2.685-.17 6.624l-9.36-.44 15.77 78.002 59.958 3.752 4.38-5.154 6.593-72.534-4.972-.232c8.716-16.812 19.5-37.59 19.752-37.98zM-21.973 680.504l14.49-18.714.8-21.468 13.342-14.217s4.89-14.887 4.945-15.024l-12.934-5.008-4.123 12.87-13.53 15.84-1.012 20.304-11.93 17.122 9.952 8.296zm37.706-31.832l-11.12-6.07-11.945 26.556-12.24 16.764-18.775-.88 9.736-27.8 2.023-27.5-13.923-1.702-1.816 27.258-9.64 29.104-1.494-.07 2.475-31.525 6.632-29.47-14.06-.195-5.835 28.073-.74 21.165-5.12-10.817 3.867-20.415-14.138-2.93-3.933 23.326 8.093 15.09-.172 6.624-9.357-.44 15.77 78.002 59.957 3.752 4.38-5.154 6.594-72.534-4.973-.232c8.716-16.812 19.5-37.59 19.753-37.98z"/></g></svg>